<svg width="1402" height="342" viewBox="0 0 1402 342" fill="none" xmlns="http://www.w3.org/2000/svg">
<path d="M0 32L151.5 97L193 195.5L233 97L386 32L277 309.5L193 195.5L107.5 309.5L0 32Z" fill="white"/>
<path d="M427.5 267V87H454.625L516.875 214.5L579.125 87H606.25V267H578.125V151.625L522.875 267H510.875L455.75 151.625V267H427.5ZM688.492 270.75C674.992 270.75 663.201 267.708 653.117 261.625C643.034 255.542 635.201 247.167 629.617 236.5C624.117 225.75 621.367 213.417 621.367 199.5C621.367 185.333 624.201 172.917 629.867 162.25C635.534 151.583 643.409 143.25 653.492 137.25C663.576 131.25 675.242 128.25 688.492 128.25C702.076 128.25 713.909 131.292 723.992 137.375C734.076 143.458 741.909 151.875 747.492 162.625C753.076 173.292 755.867 185.583 755.867 199.5C755.867 213.5 753.034 225.875 747.367 236.625C741.784 247.292 733.951 255.667 723.867 261.75C713.784 267.75 701.992 270.75 688.492 270.75ZM688.492 242.5C700.492 242.5 709.409 238.5 715.242 230.5C721.076 222.5 723.992 212.167 723.992 199.5C723.992 186.417 721.034 176 715.117 168.25C709.201 160.417 700.326 156.5 688.492 156.5C680.409 156.5 673.742 158.333 668.492 162C663.326 165.583 659.492 170.625 656.992 177.125C654.492 183.542 653.242 191 653.242 199.5C653.242 212.583 656.201 223.042 662.117 230.875C668.117 238.625 676.909 242.5 688.492 242.5ZM864.283 267V202C864.283 197.75 863.992 193.042 863.408 187.875C862.825 182.708 861.45 177.75 859.283 173C857.2 168.167 854.033 164.208 849.783 161.125C845.617 158.042 839.95 156.5 832.783 156.5C828.95 156.5 825.158 157.125 821.408 158.375C817.658 159.625 814.242 161.792 811.158 164.875C808.158 167.875 805.742 172.042 803.908 177.375C802.075 182.625 801.158 189.375 801.158 197.625L783.283 190C783.283 178.5 785.492 168.083 789.908 158.75C794.408 149.417 800.992 142 809.658 136.5C818.325 130.917 828.992 128.125 841.658 128.125C851.658 128.125 859.908 129.792 866.408 133.125C872.908 136.458 878.075 140.708 881.908 145.875C885.742 151.042 888.575 156.542 890.408 162.375C892.242 168.208 893.408 173.75 893.908 179C894.492 184.167 894.783 188.375 894.783 191.625V267H864.283ZM770.658 267V132H797.533V173.875H801.158V267H770.658ZM952.652 270.75C942.902 270.75 934.652 268.917 927.902 265.25C921.152 261.5 916.027 256.542 912.527 250.375C909.111 244.208 907.402 237.417 907.402 230C907.402 223.5 908.486 217.667 910.652 212.5C912.819 207.25 916.152 202.75 920.652 199C925.152 195.167 930.986 192.042 938.152 189.625C943.569 187.875 949.902 186.292 957.152 184.875C964.486 183.458 972.402 182.167 980.902 181C989.486 179.75 998.444 178.417 1007.78 177L997.027 183.125C997.111 173.792 995.027 166.917 990.777 162.5C986.527 158.083 979.361 155.875 969.277 155.875C963.194 155.875 957.319 157.292 951.652 160.125C945.986 162.958 942.027 167.833 939.777 174.75L912.277 166.125C915.611 154.708 921.944 145.542 931.277 138.625C940.694 131.708 953.361 128.25 969.277 128.25C981.277 128.25 991.819 130.208 1000.9 134.125C1010.07 138.042 1016.86 144.458 1021.28 153.375C1023.69 158.125 1025.15 163 1025.65 168C1026.15 172.917 1026.4 178.292 1026.4 184.125V267H1000.03V237.75L1004.4 242.5C998.319 252.25 991.194 259.417 983.027 264C974.944 268.5 964.819 270.75 952.652 270.75ZM958.652 246.75C965.486 246.75 971.319 245.542 976.152 243.125C980.986 240.708 984.819 237.75 987.652 234.25C990.569 230.75 992.527 227.458 993.527 224.375C995.111 220.542 995.986 216.167 996.152 211.25C996.402 206.25 996.527 202.208 996.527 199.125L1005.78 201.875C996.694 203.292 988.902 204.542 982.402 205.625C975.902 206.708 970.319 207.75 965.652 208.75C960.986 209.667 956.861 210.708 953.277 211.875C949.777 213.125 946.819 214.583 944.402 216.25C941.986 217.917 940.111 219.833 938.777 222C937.527 224.167 936.902 226.708 936.902 229.625C936.902 232.958 937.736 235.917 939.402 238.5C941.069 241 943.486 243 946.652 244.5C949.902 246 953.902 246.75 958.652 246.75ZM1046.45 267V132H1073.07V164.875L1069.82 160.625C1071.49 156.125 1073.7 152.042 1076.45 148.375C1079.28 144.625 1082.65 141.542 1086.57 139.125C1089.9 136.875 1093.57 135.125 1097.57 133.875C1101.65 132.542 1105.82 131.75 1110.07 131.5C1114.32 131.167 1118.45 131.333 1122.45 132V160.125C1118.45 158.958 1113.82 158.583 1108.57 159C1103.4 159.417 1098.74 160.875 1094.57 163.375C1090.4 165.625 1086.99 168.5 1084.32 172C1081.74 175.5 1079.82 179.5 1078.57 184C1077.32 188.417 1076.7 193.208 1076.7 198.375V267H1046.45ZM1189.98 270.75C1176.07 270.75 1164.19 267.667 1154.36 261.5C1144.52 255.25 1136.98 246.75 1131.73 236C1126.57 225.25 1123.94 213.083 1123.86 199.5C1123.94 185.667 1126.65 173.417 1131.98 162.75C1137.4 152 1145.07 143.583 1154.98 137.5C1164.9 131.333 1176.69 128.25 1190.36 128.25C1205.69 128.25 1218.65 132.125 1229.23 139.875C1239.9 147.542 1246.86 158.042 1250.11 171.375L1220.11 179.5C1217.77 172.25 1213.9 166.625 1208.48 162.625C1203.07 158.542 1196.9 156.5 1189.98 156.5C1182.15 156.5 1175.69 158.375 1170.61 162.125C1165.52 165.792 1161.77 170.875 1159.36 177.375C1156.94 183.875 1155.73 191.25 1155.73 199.5C1155.73 212.333 1158.61 222.708 1164.36 230.625C1170.11 238.542 1178.65 242.5 1189.98 242.5C1197.98 242.5 1204.27 240.667 1208.86 237C1213.52 233.333 1217.02 228.042 1219.36 221.125L1250.11 228C1245.94 241.75 1238.65 252.333 1228.23 259.75C1217.82 267.083 1205.07 270.75 1189.98 270.75ZM1356.03 267V202C1356.03 197.75 1355.74 193.042 1355.16 187.875C1354.57 182.708 1353.2 177.75 1351.03 173C1348.95 168.167 1345.78 164.208 1341.53 161.125C1337.36 158.042 1331.7 156.5 1324.53 156.5C1320.7 156.5 1316.91 157.125 1313.16 158.375C1309.41 159.625 1305.99 161.792 1302.91 164.875C1299.91 167.875 1297.49 172.042 1295.66 177.375C1293.82 182.625 1292.91 189.375 1292.91 197.625L1275.03 190C1275.03 178.5 1277.24 168.083 1281.66 158.75C1286.16 149.417 1292.74 142 1301.41 136.5C1310.07 130.917 1320.74 128.125 1333.41 128.125C1343.41 128.125 1351.66 129.792 1358.16 133.125C1364.66 136.458 1369.82 140.708 1373.66 145.875C1377.49 151.042 1380.32 156.542 1382.16 162.375C1383.99 168.208 1385.16 173.75 1385.66 179C1386.24 184.167 1386.53 188.375 1386.53 191.625V267H1356.03ZM1262.41 267V87H1289.28V181.75H1292.91V267H1262.41Z" fill="white"/>
</svg>
