<svg width="200" height="55" viewBox="0 0 200 55" fill="none" xmlns="http://www.w3.org/2000/svg">
<rect width="200" height="8" rx="4" transform="matrix(-1 0 0 1 200 22)" fill="url(#paint0_linear_2623_3174)"/>
<path d="M1.5675 0.499999H3V9.7475H8.655V11H1.5675V0.499999ZM10.031 7.25C10.031 6.485 10.181 5.8075 10.481 5.2175C10.786 4.6275 11.216 4.165 11.771 3.83C12.326 3.49 12.9785 3.32 13.7285 3.32H13.886C14.641 3.32 15.2935 3.49 15.8435 3.83C16.3985 4.165 16.826 4.6275 17.126 5.2175C17.431 5.8075 17.5835 6.485 17.5835 7.25C17.5835 8.01 17.431 8.6875 17.126 9.2825C16.826 9.8725 16.3985 10.3375 15.8435 10.6775C15.2935 11.0125 14.641 11.18 13.886 11.18H13.7285C12.9785 11.18 12.326 11.0125 11.771 10.6775C11.216 10.3375 10.786 9.8725 10.481 9.2825C10.181 8.6875 10.031 8.01 10.031 7.25ZM11.4335 7.25C11.4335 8.09 11.6385 8.7625 12.0485 9.2675C12.4635 9.7725 13.026 10.025 13.736 10.025H13.8785C14.5935 10.025 15.156 9.7725 15.566 9.2675C15.976 8.7625 16.181 8.09 16.181 7.25C16.181 6.41 15.976 5.7375 15.566 5.2325C15.156 4.7275 14.5935 4.475 13.8785 4.475H13.736C13.026 4.475 12.4635 4.7275 12.0485 5.2325C11.6385 5.7375 11.4335 6.41 11.4335 7.25ZM28.7701 3.5H30.2176C29.5126 6.07 28.7051 8.57 27.7951 11H26.0851L24.4501 5.495L22.8151 11H21.1051C20.6501 9.795 20.2201 8.565 19.8151 7.31C19.4151 6.05 19.0376 4.78 18.6826 3.5H20.1676C20.4326 4.57 20.7176 5.6375 21.0226 6.7025C21.3326 7.7675 21.6551 8.8225 21.9901 9.8675L23.7376 3.9575H25.1851L26.9401 9.9125C27.2801 8.8575 27.6051 7.795 27.9151 6.725C28.2251 5.655 28.5101 4.58 28.7701 3.5Z" fill="white" style="fill:white;fill-opacity:1;"/>
<line x1="16.5" y1="17" x2="16.5" y2="25" stroke="white" style="stroke:white;stroke-opacity:1;" stroke-width="2" stroke-linecap="round"/>
<path d="M167.568 0.499999H169V5.0975H174.775V0.499999H176.208V11H174.775V6.3575H169V11H167.568V0.499999ZM178.992 3.5H180.342V11H178.992V3.5ZM178.775 1.0775C178.775 0.822499 178.855 0.615 179.015 0.455C179.175 0.29 179.395 0.2075 179.675 0.2075C179.955 0.2075 180.175 0.29 180.335 0.455C180.495 0.615 180.575 0.822499 180.575 1.0775C180.575 1.3375 180.495 1.55 180.335 1.715C180.175 1.875 179.955 1.955 179.675 1.955C179.395 1.955 179.175 1.875 179.015 1.715C178.855 1.55 178.775 1.3375 178.775 1.0775ZM182.352 7.1975C182.352 6.4325 182.487 5.76 182.757 5.18C183.032 4.6 183.417 4.1475 183.912 3.8225C184.407 3.4975 184.982 3.335 185.637 3.335H185.794C186.294 3.335 186.757 3.445 187.182 3.665C187.607 3.88 187.959 4.2025 188.239 4.6325V3.5225H189.567V10.4525C189.567 11.3275 189.414 12.05 189.109 12.62C188.809 13.195 188.392 13.6225 187.857 13.9025C187.327 14.1825 186.714 14.3225 186.019 14.3225H185.862C185.182 14.3225 184.574 14.1875 184.039 13.9175C183.509 13.6525 183.077 13.275 182.742 12.785L183.664 12.0425C183.914 12.4175 184.219 12.7 184.579 12.89C184.939 13.085 185.372 13.1825 185.877 13.1825C186.627 13.1825 187.204 12.965 187.609 12.53C188.019 12.1 188.224 11.4475 188.224 10.5725V9.725C187.954 10.17 187.607 10.505 187.182 10.73C186.762 10.955 186.299 11.0675 185.794 11.0675H185.637C184.982 11.0675 184.407 10.9075 183.912 10.5875C183.417 10.2625 183.032 9.81 182.757 9.23C182.487 8.645 182.352 7.9675 182.352 7.1975ZM183.754 7.1975C183.754 8.0675 183.952 8.74 184.347 9.215C184.747 9.69 185.287 9.9275 185.967 9.9275H186.109C186.599 9.9275 187.024 9.7825 187.384 9.4925C187.744 9.2025 188.024 8.8225 188.224 8.3525V6.0425C188.024 5.5775 187.744 5.2 187.384 4.91C187.024 4.62 186.599 4.475 186.109 4.475H185.967C185.287 4.475 184.747 4.7125 184.347 5.1875C183.952 5.6625 183.754 6.3325 183.754 7.1975ZM197.355 6.785C197.355 5.245 196.805 4.475 195.705 4.475H195.555C195.02 4.475 194.565 4.645 194.19 4.985C193.82 5.325 193.545 5.7575 193.365 6.2825V11H192.015V0.0499997H193.365V4.7975C193.645 4.3375 193.995 3.9775 194.415 3.7175C194.84 3.4525 195.33 3.32 195.885 3.32H196.042C196.877 3.32 197.53 3.605 198 4.175C198.47 4.745 198.705 5.5575 198.705 6.6125V11H197.355V6.785Z" fill="white" style="fill:white;fill-opacity:1;"/>
<line x1="184" y1="17" x2="184" y2="25" stroke="white" style="stroke:white;stroke-opacity:1;" stroke-width="2" stroke-linecap="round"/>
<path d="M80.8118 49C80.6868 48.53 80.5468 48.045 80.3918 47.545C80.2418 47.04 80.0818 46.53 79.9118 46.015H75.0818C74.9118 46.53 74.7493 47.04 74.5943 47.545C74.4443 48.045 74.3068 48.53 74.1818 49H72.6818C73.0168 47.865 73.3993 46.69 73.8293 45.475C74.2643 44.255 74.7243 43.05 75.2093 41.86C75.6943 40.67 76.1793 39.55 76.6643 38.5H78.3818C78.8718 39.55 79.3568 40.67 79.8368 41.86C80.3218 43.05 80.7793 44.255 81.2093 45.475C81.6443 46.69 82.0268 47.865 82.3568 49H80.8118ZM79.4993 44.7925C79.1843 43.8975 78.8543 43.0125 78.5093 42.1375C78.1693 41.2625 77.8318 40.4375 77.4968 39.6625C77.1618 40.4375 76.8218 41.2625 76.4768 42.1375C76.1368 43.0125 75.8093 43.8975 75.4943 44.7925H79.4993ZM83.5759 45.2575C83.5759 44.4525 83.7284 43.755 84.0334 43.165C84.3384 42.575 84.7634 42.12 85.3084 41.8C85.8534 41.48 86.4859 41.32 87.2059 41.32H87.3634C87.9384 41.32 88.4784 41.465 88.9834 41.755C89.4884 42.04 89.8984 42.435 90.2134 42.94L89.1709 43.615C88.9509 43.26 88.6859 42.9825 88.3759 42.7825C88.0659 42.5775 87.7134 42.475 87.3184 42.475H87.1759C86.4959 42.475 85.9584 42.7275 85.5634 43.2325C85.1734 43.7375 84.9784 44.41 84.9784 45.25C84.9784 46.09 85.1734 46.7625 85.5634 47.2675C85.9584 47.7725 86.4959 48.025 87.1759 48.025H87.3184C87.7184 48.025 88.0809 47.935 88.4059 47.755C88.7309 47.575 89.0084 47.3325 89.2384 47.0275L90.2134 47.77C89.8884 48.21 89.4759 48.555 88.9759 48.805C88.4809 49.055 87.9434 49.18 87.3634 49.18H87.2059C86.4909 49.18 85.8609 49.02 85.3159 48.7C84.7709 48.38 84.3434 47.9275 84.0334 47.3425C83.7284 46.7525 83.5759 46.0575 83.5759 45.2575ZM92.7194 46.465V42.58H91.2494V41.5H92.7194V39.265H94.0694V41.5H96.4994V42.58H94.0694V46.3C94.0694 46.92 94.1719 47.3525 94.3769 47.5975C94.5869 47.8375 94.9394 47.9575 95.4344 47.9575C95.6594 47.9575 95.8619 47.945 96.0419 47.92C96.2219 47.895 96.4094 47.865 96.6044 47.83V48.925C96.4044 48.975 96.1844 49.015 95.9444 49.045C95.7044 49.08 95.4694 49.0975 95.2394 49.0975C94.3744 49.0975 93.7369 48.8875 93.3269 48.4675C92.9219 48.0425 92.7194 47.375 92.7194 46.465ZM98.3732 41.5H99.7232V49H98.3732V41.5ZM98.1557 39.0775C98.1557 38.8225 98.2357 38.615 98.3957 38.455C98.5557 38.29 98.7757 38.2075 99.0557 38.2075C99.3357 38.2075 99.5557 38.29 99.7157 38.455C99.8757 38.615 99.9557 38.8225 99.9557 39.0775C99.9557 39.3375 99.8757 39.55 99.7157 39.715C99.5557 39.875 99.3357 39.955 99.0557 39.955C98.7757 39.955 98.5557 39.875 98.3957 39.715C98.2357 39.55 98.1557 39.3375 98.1557 39.0775ZM102.948 41.5C103.268 42.57 103.618 43.64 103.998 44.71C104.378 45.78 104.778 46.845 105.198 47.905C105.618 46.845 106.015 45.78 106.39 44.71C106.77 43.64 107.12 42.57 107.44 41.5H108.91C108.49 42.77 108.035 44.035 107.545 45.295C107.06 46.55 106.548 47.785 106.008 49H104.335C103.795 47.785 103.28 46.55 102.79 45.295C102.3 44.035 101.845 42.77 101.425 41.5H102.948ZM110.619 41.5H111.969V49H110.619V41.5ZM110.402 39.0775C110.402 38.8225 110.482 38.615 110.642 38.455C110.802 38.29 111.022 38.2075 111.302 38.2075C111.582 38.2075 111.802 38.29 111.962 38.455C112.122 38.615 112.202 38.8225 112.202 39.0775C112.202 39.3375 112.122 39.55 111.962 39.715C111.802 39.875 111.582 39.955 111.302 39.955C111.022 39.955 110.802 39.875 110.642 39.715C110.482 39.55 110.402 39.3375 110.402 39.0775ZM115.044 46.465V42.58H113.574V41.5H115.044V39.265H116.394V41.5H118.824V42.58H116.394V46.3C116.394 46.92 116.496 47.3525 116.701 47.5975C116.911 47.8375 117.264 47.9575 117.759 47.9575C117.984 47.9575 118.186 47.945 118.366 47.92C118.546 47.895 118.734 47.865 118.929 47.83V48.925C118.729 48.975 118.509 49.015 118.269 49.045C118.029 49.08 117.794 49.0975 117.564 49.0975C116.699 49.0975 116.061 48.8875 115.651 48.4675C115.246 48.0425 115.044 47.375 115.044 46.465ZM120.6 51.1525C120.765 51.1775 120.912 51.19 121.042 51.19C121.597 51.19 122.042 51.0275 122.377 50.7025C122.717 50.3775 123.015 49.9225 123.27 49.3375C122.655 48.0825 122.075 46.7975 121.53 45.4825C120.985 44.1625 120.465 42.835 119.97 41.5H121.53C121.865 42.55 122.227 43.605 122.617 44.665C123.012 45.725 123.432 46.7775 123.877 47.8225L126.03 41.5H127.507L124.582 49.24C124.212 50.22 123.772 50.9775 123.262 51.5125C122.757 52.0525 122.072 52.3225 121.207 52.3225C120.992 52.3225 120.79 52.305 120.6 52.27V51.1525Z" fill="white" style="fill:white;fill-opacity:1;"/>
<defs>
<linearGradient id="paint0_linear_2623_3174" x1="0" y1="4" x2="200" y2="4" gradientUnits="userSpaceOnUse">
<stop stop-color="#FFFFE6" style="stop-color:#FFFFE6;stop-color:color(display-p3 1.0000 1.0000 0.9020);stop-opacity:1;"/>
<stop offset="0.2" stop-color="#F7CF47" style="stop-color:#F7CF47;stop-color:color(display-p3 0.9686 0.8118 0.2784);stop-opacity:1;"/>
<stop offset="0.4" stop-color="#EF8E34" style="stop-color:#EF8E34;stop-color:color(display-p3 0.9373 0.5569 0.2039);stop-opacity:1;"/>
<stop offset="0.6" stop-color="#CE301E" style="stop-color:#CE301E;stop-color:color(display-p3 0.8078 0.1882 0.1176);stop-opacity:1;"/>
<stop offset="0.8" stop-color="#7A170D" style="stop-color:#7A170D;stop-color:color(display-p3 0.4784 0.0902 0.0510);stop-opacity:1;"/>
<stop offset="1" stop-color="#210201" style="stop-color:#210201;stop-color:color(display-p3 0.1294 0.0078 0.0039);stop-opacity:1;"/>
</linearGradient>
</defs>
</svg>
